# xmcd
#
# Track frame offsets: 
#        150
#        17357
#        33531
#        46544
#        64329
#        84962
#        100606
#        120461
#        137032
#        154277
#        167767
#        185652
#
# Disc length: 2768 seconds
#
# Revision: 0
# Processed by: cddbd v1.5.2PL0 Copyright (c) Steve Scherf et al.
# Submitted via: ExactAudioCopy v0.99pb3
#
DISCID=8f0ace0c
DTITLE=The Mystix - Down To The Shore
DYEAR=2009
DGENRE=Americana
TTITLE0=Down To The Shore
TTITLE1=Good Deal Lucille
TTITLE2=Somebody's Baby
TTITLE3=Roll Of The Dice
TTITLE4=That's What You Do To Me
TTITLE5=Gamblin Man
TTITLE6=I've Been Scorned
TTITLE7=Nothing Between
TTITLE8=Get Right
TTITLE9=Lonesome Again
TTITLE10=Let's Get Started
TTITLE11=Walkin' The Dog (live)
EXTD=
EXTT0=
EXTT1=
EXTT2=
EXTT3=
EXTT4=
EXTT5=
EXTT6=
EXTT7=
EXTT8=
EXTT9=
EXTT10=
EXTT11=
PLAYORDER=
